<svg width="        800px" height="        600px">
<line x1=" 1.00000E+02" y1=" 0.00000E+00" x2=" 1.00000E+02" y2=" 6.00000E+02" style="stroke:rgb(0,0,0);stroke-width:1.5"/>
<line x1=" 2.00000E+02" y1=" 0.00000E+00" x2=" 2.00000E+02" y2=" 6.00000E+02" style="stroke:rgb(0,0,0);stroke-width:1.5"/>
<line x1=" 3.00000E+02" y1=" 0.00000E+00" x2=" 3.00000E+02" y2=" 6.00000E+02" style="stroke:rgb(0,0,0);stroke-width:1.5"/>
<line x1=" 4.00000E+02" y1=" 0.00000E+00" x2=" 4.00000E+02" y2=" 6.00000E+02" style="stroke:rgb(0,0,0);stroke-width:1.5"/>
<line x1=" 5.00000E+02" y1=" 0.00000E+00" x2=" 5.00000E+02" y2=" 6.00000E+02" style="stroke:rgb(0,0,0);stroke-width:1.5"/>
<line x1=" 6.00000E+02" y1=" 0.00000E+00" x2=" 6.00000E+02" y2=" 6.00000E+02" style="stroke:rgb(0,0,0);stroke-width:1.5"/>
<line x1=" 7.00000E+02" y1=" 0.00000E+00" x2=" 7.00000E+02" y2=" 6.00000E+02" style="stroke:rgb(0,0,0);stroke-width:1.5"/>
<line x1=" 8.00000E+02" y1=" 0.00000E+00" x2=" 8.00000E+02" y2=" 6.00000E+02" style="stroke:rgb(0,0,0);stroke-width:1.5"/>
<line x1=" 1.00000E+01" y1=" 0.00000E+00" x2=" 1.00000E+01" y2=" 6.00000E+02" style="stroke:rgb(0,0,0);stroke-width:0.75"/>
<line x1=" 2.00000E+01" y1=" 0.00000E+00" x2=" 2.00000E+01" y2=" 6.00000E+02" style="stroke:rgb(0,0,0);stroke-width:0.75"/>
<line x1=" 3.00000E+01" y1=" 0.00000E+00" x2=" 3.00000E+01" y2=" 6.00000E+02" style="stroke:rgb(0,0,0);stroke-width:0.75"/>
<line x1=" 4.00000E+01" y1=" 0.00000E+00" x2=" 4.00000E+01" y2=" 6.00000E+02" style="stroke:rgb(0,0,0);stroke-width:0.75"/>
<line x1=" 5.00000E+01" y1=" 0.00000E+00" x2=" 5.00000E+01" y2=" 6.00000E+02" style="stroke:rgb(0,0,0);stroke-width:0.75"/>
<line x1=" 6.00000E+01" y1=" 0.00000E+00" x2=" 6.00000E+01" y2=" 6.00000E+02" style="stroke:rgb(0,0,0);stroke-width:0.75"/>
<line x1=" 7.00000E+01" y1=" 0.00000E+00" x2=" 7.00000E+01" y2=" 6.00000E+02" style="stroke:rgb(0,0,0);stroke-width:0.75"/>
<line x1=" 8.00000E+01" y1=" 0.00000E+00" x2=" 8.00000E+01" y2=" 6.00000E+02" style="stroke:rgb(0,0,0);stroke-width:0.75"/>
<line x1=" 9.00000E+01" y1=" 0.00000E+00" x2=" 9.00000E+01" y2=" 6.00000E+02" style="stroke:rgb(0,0,0);stroke-width:0.75"/>
<line x1=" 1.00000E+02" y1=" 0.00000E+00" x2=" 1.00000E+02" y2=" 6.00000E+02" style="stroke:rgb(0,0,0);stroke-width:0.75"/>
<line x1=" 1.10000E+02" y1=" 0.00000E+00" x2=" 1.10000E+02" y2=" 6.00000E+02" style="stroke:rgb(0,0,0);stroke-width:0.75"/>
<line x1=" 1.20000E+02" y1=" 0.00000E+00" x2=" 1.20000E+02" y2=" 6.00000E+02" style="stroke:rgb(0,0,0);stroke-width:0.75"/>
<line x1=" 1.30000E+02" y1=" 0.00000E+00" x2=" 1.30000E+02" y2=" 6.00000E+02" style="stroke:rgb(0,0,0);stroke-width:0.75"/>
<line x1=" 1.40000E+02" y1=" 0.00000E+00" x2=" 1.40000E+02" y2=" 6.00000E+02" style="stroke:rgb(0,0,0);stroke-width:0.75"/>
<line x1=" 1.50000E+02" y1=" 0.00000E+00" x2=" 1.50000E+02" y2=" 6.00000E+02" style="stroke:rgb(0,0,0);stroke-width:0.75"/>
<line x1=" 1.60000E+02" y1=" 0.00000E+00" x2=" 1.60000E+02" y2=" 6.00000E+02" style="stroke:rgb(0,0,0);stroke-width:0.75"/>
<line x1=" 1.70000E+02" y1=" 0.00000E+00" x2=" 1.70000E+02" y2=" 6.00000E+02" style="stroke:rgb(0,0,0);stroke-width:0.75"/>
<line x1=" 1.80000E+02" y1=" 0.00000E+00" x2=" 1.80000E+02" y2=" 6.00000E+02" style="stroke:rgb(0,0,0);stroke-width:0.75"/>
<line x1=" 1.90000E+02" y1=" 0.00000E+00" x2=" 1.90000E+02" y2=" 6.00000E+02" style="stroke:rgb(0,0,0);stroke-width:0.75"/>
<line x1=" 2.00000E+02" y1=" 0.00000E+00" x2=" 2.00000E+02" y2=" 6.00000E+02" style="stroke:rgb(0,0,0);stroke-width:0.75"/>
<line x1=" 2.10000E+02" y1=" 0.00000E+00" x2=" 2.10000E+02" y2=" 6.00000E+02" style="stroke:rgb(0,0,0);stroke-width:0.75"/>
<line x1=" 2.20000E+02" y1=" 0.00000E+00" x2=" 2.20000E+02" y2=" 6.00000E+02" style="stroke:rgb(0,0,0);stroke-width:0.75"/>
<line x1=" 2.30000E+02" y1=" 0.00000E+00" x2=" 2.30000E+02" y2=" 6.00000E+02" style="stroke:rgb(0,0,0);stroke-width:0.75"/>
<line x1=" 2.40000E+02" y1=" 0.00000E+00" x2=" 2.40000E+02" y2=" 6.00000E+02" style="stroke:rgb(0,0,0);stroke-width:0.75"/>
<line x1=" 2.50000E+02" y1=" 0.00000E+00" x2=" 2.50000E+02" y2=" 6.00000E+02" style="stroke:rgb(0,0,0);stroke-width:0.75"/>
<line x1=" 2.60000E+02" y1=" 0.00000E+00" x2=" 2.60000E+02" y2=" 6.00000E+02" style="stroke:rgb(0,0,0);stroke-width:0.75"/>
<line x1=" 2.70000E+02" y1=" 0.00000E+00" x2=" 2.70000E+02" y2=" 6.00000E+02" style="stroke:rgb(0,0,0);stroke-width:0.75"/>
<line x1=" 2.80000E+02" y1=" 0.00000E+00" x2=" 2.80000E+02" y2=" 6.00000E+02" style="stroke:rgb(0,0,0);stroke-width:0.75"/>
<line x1=" 2.90000E+02" y1=" 0.00000E+00" x2=" 2.90000E+02" y2=" 6.00000E+02" style="stroke:rgb(0,0,0);stroke-width:0.75"/>
<line x1=" 3.00000E+02" y1=" 0.00000E+00" x2=" 3.00000E+02" y2=" 6.00000E+02" style="stroke:rgb(0,0,0);stroke-width:0.75"/>
<line x1=" 3.10000E+02" y1=" 0.00000E+00" x2=" 3.10000E+02" y2=" 6.00000E+02" style="stroke:rgb(0,0,0);stroke-width:0.75"/>
<line x1=" 3.20000E+02" y1=" 0.00000E+00" x2=" 3.20000E+02" y2=" 6.00000E+02" style="stroke:rgb(0,0,0);stroke-width:0.75"/>
<line x1=" 3.30000E+02" y1=" 0.00000E+00" x2=" 3.30000E+02" y2=" 6.00000E+02" style="stroke:rgb(0,0,0);stroke-width:0.75"/>
<line x1=" 3.40000E+02" y1=" 0.00000E+00" x2=" 3.40000E+02" y2=" 6.00000E+02" style="stroke:rgb(0,0,0);stroke-width:0.75"/>
<line x1=" 3.50000E+02" y1=" 0.00000E+00" x2=" 3.50000E+02" y2=" 6.00000E+02" style="stroke:rgb(0,0,0);stroke-width:0.75"/>
<line x1=" 3.60000E+02" y1=" 0.00000E+00" x2=" 3.60000E+02" y2=" 6.00000E+02" style="stroke:rgb(0,0,0);stroke-width:0.75"/>
<line x1=" 3.70000E+02" y1=" 0.00000E+00" x2=" 3.70000E+02" y2=" 6.00000E+02" style="stroke:rgb(0,0,0);stroke-width:0.75"/>
<line x1=" 3.80000E+02" y1=" 0.00000E+00" x2=" 3.80000E+02" y2=" 6.00000E+02" style="stroke:rgb(0,0,0);stroke-width:0.75"/>
<line x1=" 3.90000E+02" y1=" 0.00000E+00" x2=" 3.90000E+02" y2=" 6.00000E+02" style="stroke:rgb(0,0,0);stroke-width:0.75"/>
<line x1=" 4.00000E+02" y1=" 0.00000E+00" x2=" 4.00000E+02" y2=" 6.00000E+02" style="stroke:rgb(0,0,0);stroke-width:0.75"/>
<line x1=" 4.10000E+02" y1=" 0.00000E+00" x2=" 4.10000E+02" y2=" 6.00000E+02" style="stroke:rgb(0,0,0);stroke-width:0.75"/>
<line x1=" 4.20000E+02" y1=" 0.00000E+00" x2=" 4.20000E+02" y2=" 6.00000E+02" style="stroke:rgb(0,0,0);stroke-width:0.75"/>
<line x1=" 4.30000E+02" y1=" 0.00000E+00" x2=" 4.30000E+02" y2=" 6.00000E+02" style="stroke:rgb(0,0,0);stroke-width:0.75"/>
<line x1=" 4.40000E+02" y1=" 0.00000E+00" x2=" 4.40000E+02" y2=" 6.00000E+02" style="stroke:rgb(0,0,0);stroke-width:0.75"/>
<line x1=" 4.50000E+02" y1=" 0.00000E+00" x2=" 4.50000E+02" y2=" 6.00000E+02" style="stroke:rgb(0,0,0);stroke-width:0.75"/>
<line x1=" 4.60000E+02" y1=" 0.00000E+00" x2=" 4.60000E+02" y2=" 6.00000E+02" style="stroke:rgb(0,0,0);stroke-width:0.75"/>
<line x1=" 4.70000E+02" y1=" 0.00000E+00" x2=" 4.70000E+02" y2=" 6.00000E+02" style="stroke:rgb(0,0,0);stroke-width:0.75"/>
<line x1=" 4.80000E+02" y1=" 0.00000E+00" x2=" 4.80000E+02" y2=" 6.00000E+02" style="stroke:rgb(0,0,0);stroke-width:0.75"/>
<line x1=" 4.90000E+02" y1=" 0.00000E+00" x2=" 4.90000E+02" y2=" 6.00000E+02" style="stroke:rgb(0,0,0);stroke-width:0.75"/>
<line x1=" 5.00000E+02" y1=" 0.00000E+00" x2=" 5.00000E+02" y2=" 6.00000E+02" style="stroke:rgb(0,0,0);stroke-width:0.75"/>
<line x1=" 5.10000E+02" y1=" 0.00000E+00" x2=" 5.10000E+02" y2=" 6.00000E+02" style="stroke:rgb(0,0,0);stroke-width:0.75"/>
<line x1=" 5.20000E+02" y1=" 0.00000E+00" x2=" 5.20000E+02" y2=" 6.00000E+02" style="stroke:rgb(0,0,0);stroke-width:0.75"/>
<line x1=" 5.30000E+02" y1=" 0.00000E+00" x2=" 5.30000E+02" y2=" 6.00000E+02" style="stroke:rgb(0,0,0);stroke-width:0.75"/>
<line x1=" 5.40000E+02" y1=" 0.00000E+00" x2=" 5.40000E+02" y2=" 6.00000E+02" style="stroke:rgb(0,0,0);stroke-width:0.75"/>
<line x1=" 5.50000E+02" y1=" 0.00000E+00" x2=" 5.50000E+02" y2=" 6.00000E+02" style="stroke:rgb(0,0,0);stroke-width:0.75"/>
<line x1=" 5.60000E+02" y1=" 0.00000E+00" x2=" 5.60000E+02" y2=" 6.00000E+02" style="stroke:rgb(0,0,0);stroke-width:0.75"/>
<line x1=" 5.70000E+02" y1=" 0.00000E+00" x2=" 5.70000E+02" y2=" 6.00000E+02" style="stroke:rgb(0,0,0);stroke-width:0.75"/>
<line x1=" 5.80000E+02" y1=" 0.00000E+00" x2=" 5.80000E+02" y2=" 6.00000E+02" style="stroke:rgb(0,0,0);stroke-width:0.75"/>
<line x1=" 5.90000E+02" y1=" 0.00000E+00" x2=" 5.90000E+02" y2=" 6.00000E+02" style="stroke:rgb(0,0,0);stroke-width:0.75"/>
<line x1=" 6.00000E+02" y1=" 0.00000E+00" x2=" 6.00000E+02" y2=" 6.00000E+02" style="stroke:rgb(0,0,0);stroke-width:0.75"/>
<line x1=" 6.10000E+02" y1=" 0.00000E+00" x2=" 6.10000E+02" y2=" 6.00000E+02" style="stroke:rgb(0,0,0);stroke-width:0.75"/>
<line x1=" 6.20000E+02" y1=" 0.00000E+00" x2=" 6.20000E+02" y2=" 6.00000E+02" style="stroke:rgb(0,0,0);stroke-width:0.75"/>
<line x1=" 6.30000E+02" y1=" 0.00000E+00" x2=" 6.30000E+02" y2=" 6.00000E+02" style="stroke:rgb(0,0,0);stroke-width:0.75"/>
<line x1=" 6.40000E+02" y1=" 0.00000E+00" x2=" 6.40000E+02" y2=" 6.00000E+02" style="stroke:rgb(0,0,0);stroke-width:0.75"/>
<line x1=" 6.50000E+02" y1=" 0.00000E+00" x2=" 6.50000E+02" y2=" 6.00000E+02" style="stroke:rgb(0,0,0);stroke-width:0.75"/>
<line x1=" 6.60000E+02" y1=" 0.00000E+00" x2=" 6.60000E+02" y2=" 6.00000E+02" style="stroke:rgb(0,0,0);stroke-width:0.75"/>
<line x1=" 6.70000E+02" y1=" 0.00000E+00" x2=" 6.70000E+02" y2=" 6.00000E+02" style="stroke:rgb(0,0,0);stroke-width:0.75"/>
<line x1=" 6.80000E+02" y1=" 0.00000E+00" x2=" 6.80000E+02" y2=" 6.00000E+02" style="stroke:rgb(0,0,0);stroke-width:0.75"/>
<line x1=" 6.90000E+02" y1=" 0.00000E+00" x2=" 6.90000E+02" y2=" 6.00000E+02" style="stroke:rgb(0,0,0);stroke-width:0.75"/>
<line x1=" 7.00000E+02" y1=" 0.00000E+00" x2=" 7.00000E+02" y2=" 6.00000E+02" style="stroke:rgb(0,0,0);stroke-width:0.75"/>
<line x1=" 7.10000E+02" y1=" 0.00000E+00" x2=" 7.10000E+02" y2=" 6.00000E+02" style="stroke:rgb(0,0,0);stroke-width:0.75"/>
<line x1=" 7.20000E+02" y1=" 0.00000E+00" x2=" 7.20000E+02" y2=" 6.00000E+02" style="stroke:rgb(0,0,0);stroke-width:0.75"/>
<line x1=" 7.30000E+02" y1=" 0.00000E+00" x2=" 7.30000E+02" y2=" 6.00000E+02" style="stroke:rgb(0,0,0);stroke-width:0.75"/>
<line x1=" 7.40000E+02" y1=" 0.00000E+00" x2=" 7.40000E+02" y2=" 6.00000E+02" style="stroke:rgb(0,0,0);stroke-width:0.75"/>
<line x1=" 7.50000E+02" y1=" 0.00000E+00" x2=" 7.50000E+02" y2=" 6.00000E+02" style="stroke:rgb(0,0,0);stroke-width:0.75"/>
<line x1=" 7.60000E+02" y1=" 0.00000E+00" x2=" 7.60000E+02" y2=" 6.00000E+02" style="stroke:rgb(0,0,0);stroke-width:0.75"/>
<line x1=" 7.70000E+02" y1=" 0.00000E+00" x2=" 7.70000E+02" y2=" 6.00000E+02" style="stroke:rgb(0,0,0);stroke-width:0.75"/>
<line x1=" 7.80000E+02" y1=" 0.00000E+00" x2=" 7.80000E+02" y2=" 6.00000E+02" style="stroke:rgb(0,0,0);stroke-width:0.75"/>
<line x1=" 7.90000E+02" y1=" 0.00000E+00" x2=" 7.90000E+02" y2=" 6.00000E+02" style="stroke:rgb(0,0,0);stroke-width:0.75"/>
<line x1=" 8.00000E+02" y1=" 0.00000E+00" x2=" 8.00000E+02" y2=" 6.00000E+02" style="stroke:rgb(0,0,0);stroke-width:0.75"/>
<line x1=" 0.00000E+00" y1=" 1.00000E+02" x2=" 8.00000E+02" y2=" 1.00000E+02" style="stroke:rgb(0,0,0);stroke-width:1.5"/>
<line x1=" 0.00000E+00" y1=" 2.00000E+02" x2=" 8.00000E+02" y2=" 2.00000E+02" style="stroke:rgb(0,0,0);stroke-width:1.5"/>
<line x1=" 0.00000E+00" y1=" 3.00000E+02" x2=" 8.00000E+02" y2=" 3.00000E+02" style="stroke:rgb(0,0,0);stroke-width:1.5"/>
<line x1=" 0.00000E+00" y1=" 4.00000E+02" x2=" 8.00000E+02" y2=" 4.00000E+02" style="stroke:rgb(0,0,0);stroke-width:1.5"/>
<line x1=" 0.00000E+00" y1=" 5.00000E+02" x2=" 8.00000E+02" y2=" 5.00000E+02" style="stroke:rgb(0,0,0);stroke-width:1.5"/>
<line x1=" 0.00000E+00" y1=" 6.00000E+02" x2=" 8.00000E+02" y2=" 6.00000E+02" style="stroke:rgb(0,0,0);stroke-width:1.5"/>
<line x1=" 0.00000E+00" y1=" 1.00000E+01" x2=" 8.00000E+02" y2=" 1.00000E+01" style="stroke:rgb(0,0,0);stroke-width:0.75"/>
<line x1=" 0.00000E+00" y1=" 2.00000E+01" x2=" 8.00000E+02" y2=" 2.00000E+01" style="stroke:rgb(0,0,0);stroke-width:0.75"/>
<line x1=" 0.00000E+00" y1=" 3.00000E+01" x2=" 8.00000E+02" y2=" 3.00000E+01" style="stroke:rgb(0,0,0);stroke-width:0.75"/>
<line x1=" 0.00000E+00" y1=" 4.00000E+01" x2=" 8.00000E+02" y2=" 4.00000E+01" style="stroke:rgb(0,0,0);stroke-width:0.75"/>
<line x1=" 0.00000E+00" y1=" 5.00000E+01" x2=" 8.00000E+02" y2=" 5.00000E+01" style="stroke:rgb(0,0,0);stroke-width:0.75"/>
<line x1=" 0.00000E+00" y1=" 6.00000E+01" x2=" 8.00000E+02" y2=" 6.00000E+01" style="stroke:rgb(0,0,0);stroke-width:0.75"/>
<line x1=" 0.00000E+00" y1=" 7.00000E+01" x2=" 8.00000E+02" y2=" 7.00000E+01" style="stroke:rgb(0,0,0);stroke-width:0.75"/>
<line x1=" 0.00000E+00" y1=" 8.00000E+01" x2=" 8.00000E+02" y2=" 8.00000E+01" style="stroke:rgb(0,0,0);stroke-width:0.75"/>
<line x1=" 0.00000E+00" y1=" 9.00000E+01" x2=" 8.00000E+02" y2=" 9.00000E+01" style="stroke:rgb(0,0,0);stroke-width:0.75"/>
<line x1=" 0.00000E+00" y1=" 1.00000E+02" x2=" 8.00000E+02" y2=" 1.00000E+02" style="stroke:rgb(0,0,0);stroke-width:0.75"/>
<line x1=" 0.00000E+00" y1=" 1.10000E+02" x2=" 8.00000E+02" y2=" 1.10000E+02" style="stroke:rgb(0,0,0);stroke-width:0.75"/>
<line x1=" 0.00000E+00" y1=" 1.20000E+02" x2=" 8.00000E+02" y2=" 1.20000E+02" style="stroke:rgb(0,0,0);stroke-width:0.75"/>
<line x1=" 0.00000E+00" y1=" 1.30000E+02" x2=" 8.00000E+02" y2=" 1.30000E+02" style="stroke:rgb(0,0,0);stroke-width:0.75"/>
<line x1=" 0.00000E+00" y1=" 1.40000E+02" x2=" 8.00000E+02" y2=" 1.40000E+02" style="stroke:rgb(0,0,0);stroke-width:0.75"/>
<line x1=" 0.00000E+00" y1=" 1.50000E+02" x2=" 8.00000E+02" y2=" 1.50000E+02" style="stroke:rgb(0,0,0);stroke-width:0.75"/>
<line x1=" 0.00000E+00" y1=" 1.60000E+02" x2=" 8.00000E+02" y2=" 1.60000E+02" style="stroke:rgb(0,0,0);stroke-width:0.75"/>
<line x1=" 0.00000E+00" y1=" 1.70000E+02" x2=" 8.00000E+02" y2=" 1.70000E+02" style="stroke:rgb(0,0,0);stroke-width:0.75"/>
<line x1=" 0.00000E+00" y1=" 1.80000E+02" x2=" 8.00000E+02" y2=" 1.80000E+02" style="stroke:rgb(0,0,0);stroke-width:0.75"/>
<line x1=" 0.00000E+00" y1=" 1.90000E+02" x2=" 8.00000E+02" y2=" 1.90000E+02" style="stroke:rgb(0,0,0);stroke-width:0.75"/>
<line x1=" 0.00000E+00" y1=" 2.00000E+02" x2=" 8.00000E+02" y2=" 2.00000E+02" style="stroke:rgb(0,0,0);stroke-width:0.75"/>
<line x1=" 0.00000E+00" y1=" 2.10000E+02" x2=" 8.00000E+02" y2=" 2.10000E+02" style="stroke:rgb(0,0,0);stroke-width:0.75"/>
<line x1=" 0.00000E+00" y1=" 2.20000E+02" x2=" 8.00000E+02" y2=" 2.20000E+02" style="stroke:rgb(0,0,0);stroke-width:0.75"/>
<line x1=" 0.00000E+00" y1=" 2.30000E+02" x2=" 8.00000E+02" y2=" 2.30000E+02" style="stroke:rgb(0,0,0);stroke-width:0.75"/>
<line x1=" 0.00000E+00" y1=" 2.40000E+02" x2=" 8.00000E+02" y2=" 2.40000E+02" style="stroke:rgb(0,0,0);stroke-width:0.75"/>
<line x1=" 0.00000E+00" y1=" 2.50000E+02" x2=" 8.00000E+02" y2=" 2.50000E+02" style="stroke:rgb(0,0,0);stroke-width:0.75"/>
<line x1=" 0.00000E+00" y1=" 2.60000E+02" x2=" 8.00000E+02" y2=" 2.60000E+02" style="stroke:rgb(0,0,0);stroke-width:0.75"/>
<line x1=" 0.00000E+00" y1=" 2.70000E+02" x2=" 8.00000E+02" y2=" 2.70000E+02" style="stroke:rgb(0,0,0);stroke-width:0.75"/>
<line x1=" 0.00000E+00" y1=" 2.80000E+02" x2=" 8.00000E+02" y2=" 2.80000E+02" style="stroke:rgb(0,0,0);stroke-width:0.75"/>
<line x1=" 0.00000E+00" y1=" 2.90000E+02" x2=" 8.00000E+02" y2=" 2.90000E+02" style="stroke:rgb(0,0,0);stroke-width:0.75"/>
<line x1=" 0.00000E+00" y1=" 3.00000E+02" x2=" 8.00000E+02" y2=" 3.00000E+02" style="stroke:rgb(0,0,0);stroke-width:0.75"/>
<line x1=" 0.00000E+00" y1=" 3.10000E+02" x2=" 8.00000E+02" y2=" 3.10000E+02" style="stroke:rgb(0,0,0);stroke-width:0.75"/>
<line x1=" 0.00000E+00" y1=" 3.20000E+02" x2=" 8.00000E+02" y2=" 3.20000E+02" style="stroke:rgb(0,0,0);stroke-width:0.75"/>
<line x1=" 0.00000E+00" y1=" 3.30000E+02" x2=" 8.00000E+02" y2=" 3.30000E+02" style="stroke:rgb(0,0,0);stroke-width:0.75"/>
<line x1=" 0.00000E+00" y1=" 3.40000E+02" x2=" 8.00000E+02" y2=" 3.40000E+02" style="stroke:rgb(0,0,0);stroke-width:0.75"/>
<line x1=" 0.00000E+00" y1=" 3.50000E+02" x2=" 8.00000E+02" y2=" 3.50000E+02" style="stroke:rgb(0,0,0);stroke-width:0.75"/>
<line x1=" 0.00000E+00" y1=" 3.60000E+02" x2=" 8.00000E+02" y2=" 3.60000E+02" style="stroke:rgb(0,0,0);stroke-width:0.75"/>
<line x1=" 0.00000E+00" y1=" 3.70000E+02" x2=" 8.00000E+02" y2=" 3.70000E+02" style="stroke:rgb(0,0,0);stroke-width:0.75"/>
<line x1=" 0.00000E+00" y1=" 3.80000E+02" x2=" 8.00000E+02" y2=" 3.80000E+02" style="stroke:rgb(0,0,0);stroke-width:0.75"/>
<line x1=" 0.00000E+00" y1=" 3.90000E+02" x2=" 8.00000E+02" y2=" 3.90000E+02" style="stroke:rgb(0,0,0);stroke-width:0.75"/>
<line x1=" 0.00000E+00" y1=" 4.00000E+02" x2=" 8.00000E+02" y2=" 4.00000E+02" style="stroke:rgb(0,0,0);stroke-width:0.75"/>
<line x1=" 0.00000E+00" y1=" 4.10000E+02" x2=" 8.00000E+02" y2=" 4.10000E+02" style="stroke:rgb(0,0,0);stroke-width:0.75"/>
<line x1=" 0.00000E+00" y1=" 4.20000E+02" x2=" 8.00000E+02" y2=" 4.20000E+02" style="stroke:rgb(0,0,0);stroke-width:0.75"/>
<line x1=" 0.00000E+00" y1=" 4.30000E+02" x2=" 8.00000E+02" y2=" 4.30000E+02" style="stroke:rgb(0,0,0);stroke-width:0.75"/>
<line x1=" 0.00000E+00" y1=" 4.40000E+02" x2=" 8.00000E+02" y2=" 4.40000E+02" style="stroke:rgb(0,0,0);stroke-width:0.75"/>
<line x1=" 0.00000E+00" y1=" 4.50000E+02" x2=" 8.00000E+02" y2=" 4.50000E+02" style="stroke:rgb(0,0,0);stroke-width:0.75"/>
<line x1=" 0.00000E+00" y1=" 4.60000E+02" x2=" 8.00000E+02" y2=" 4.60000E+02" style="stroke:rgb(0,0,0);stroke-width:0.75"/>
<line x1=" 0.00000E+00" y1=" 4.70000E+02" x2=" 8.00000E+02" y2=" 4.70000E+02" style="stroke:rgb(0,0,0);stroke-width:0.75"/>
<line x1=" 0.00000E+00" y1=" 4.80000E+02" x2=" 8.00000E+02" y2=" 4.80000E+02" style="stroke:rgb(0,0,0);stroke-width:0.75"/>
<line x1=" 0.00000E+00" y1=" 4.90000E+02" x2=" 8.00000E+02" y2=" 4.90000E+02" style="stroke:rgb(0,0,0);stroke-width:0.75"/>
<line x1=" 0.00000E+00" y1=" 5.00000E+02" x2=" 8.00000E+02" y2=" 5.00000E+02" style="stroke:rgb(0,0,0);stroke-width:0.75"/>
<line x1=" 0.00000E+00" y1=" 5.10000E+02" x2=" 8.00000E+02" y2=" 5.10000E+02" style="stroke:rgb(0,0,0);stroke-width:0.75"/>
<line x1=" 0.00000E+00" y1=" 5.20000E+02" x2=" 8.00000E+02" y2=" 5.20000E+02" style="stroke:rgb(0,0,0);stroke-width:0.75"/>
<line x1=" 0.00000E+00" y1=" 5.30000E+02" x2=" 8.00000E+02" y2=" 5.30000E+02" style="stroke:rgb(0,0,0);stroke-width:0.75"/>
<line x1=" 0.00000E+00" y1=" 5.40000E+02" x2=" 8.00000E+02" y2=" 5.40000E+02" style="stroke:rgb(0,0,0);stroke-width:0.75"/>
<line x1=" 0.00000E+00" y1=" 5.50000E+02" x2=" 8.00000E+02" y2=" 5.50000E+02" style="stroke:rgb(0,0,0);stroke-width:0.75"/>
<line x1=" 0.00000E+00" y1=" 5.60000E+02" x2=" 8.00000E+02" y2=" 5.60000E+02" style="stroke:rgb(0,0,0);stroke-width:0.75"/>
<line x1=" 0.00000E+00" y1=" 5.70000E+02" x2=" 8.00000E+02" y2=" 5.70000E+02" style="stroke:rgb(0,0,0);stroke-width:0.75"/>
<line x1=" 0.00000E+00" y1=" 5.80000E+02" x2=" 8.00000E+02" y2=" 5.80000E+02" style="stroke:rgb(0,0,0);stroke-width:0.75"/>
<line x1=" 0.00000E+00" y1=" 5.90000E+02" x2=" 8.00000E+02" y2=" 5.90000E+02" style="stroke:rgb(0,0,0);stroke-width:0.75"/>
<line x1=" 0.00000E+00" y1=" 6.00000E+02" x2=" 8.00000E+02" y2=" 6.00000E+02" style="stroke:rgb(0,0,0);stroke-width:0.75"/>
</svg>
